<svg xmlns="http://www.w3.org/2000/svg" version="1.1" viewBox="0 0 752 752">
    <g stroke-width="2.0" fill="none" stroke-linecap="butt">
        <path stroke="#acacac" vector-effect="non-scaling-stroke" d="
  M 709.32 375.78
  C 709.32 191.47 559.90 42.05 375.59 42.05
  C 191.28 42.05 41.86 191.47 41.86 375.78
  C 41.86 560.09 191.28 709.51 375.59 709.51
  C 559.90 709.51 709.32 560.09 709.32 375.78" />
        <path stroke="#acacac" vector-effect="non-scaling-stroke" d="
  M 552.36 379.37
  L 265.67 197.10
  Q 265.00 196.67 265.00 197.47
  L 265.00 562.41
  Q 265.00 562.99 265.49 562.68
  L 552.36 380.26
  C 552.68 380.05 552.68 379.58 552.36 379.37" />
    </g>
    <path fill="#ffffff" d="
  M 750.97 375.78
  C 750.97 583.09 582.91 751.15 375.60 751.15
  C 168.29 751.15 0.23 583.09 0.23 375.78
  C 0.23 168.47 168.29 0.41 375.60 0.41
  C 582.91 0.41 750.97 168.47 750.97 375.78
  Z
  M 709.32 375.78
  C 709.32 191.47 559.90 42.05 375.59 42.05
  C 191.28 42.05 41.86 191.47 41.86 375.78
  C 41.86 560.09 191.28 709.51 375.59 709.51
  C 559.90 709.51 709.32 560.09 709.32 375.78
  Z" />
    <path fill="#595959" d="
  M 709.32 375.78
  C 709.32 560.09 559.90 709.51 375.59 709.51
  C 191.28 709.51 41.86 560.09 41.86 375.78
  C 41.86 191.47 191.28 42.05 375.59 42.05
  C 559.90 42.05 709.32 191.47 709.32 375.78
  Z
  M 552.36 379.37
  L 265.67 197.10
  Q 265.00 196.67 265.00 197.47
  L 265.00 562.41
  Q 265.00 562.99 265.49 562.68
  L 552.36 380.26
  C 552.68 380.05 552.68 379.58 552.36 379.37
  Z" />
    <path fill="#ffffff" d="
  M 552.36 379.37
  C 552.68 379.58 552.68 380.05 552.36 380.26
  L 265.49 562.68
  Q 265.00 562.99 265.00 562.41
  L 265.00 197.47
  Q 265.00 196.67 265.67 197.10
  L 552.36 379.37
  Z" />
</svg>
